<svg width="514" height="304" viewBox="0 0 514 304" fill="none" xmlns="http://www.w3.org/2000/svg">
<rect width="514" height="304" rx="24" fill="#C7D2FE"/>
<rect x="26" y="36" width="462" height="58" rx="18" fill="#818CF8"/>
<path d="M26 128C26 124.686 28.6863 122 32 122H350C353.314 122 356 124.686 356 128V146C356 149.314 353.314 152 350 152H32C28.6863 152 26 149.314 26 146V128Z" fill="#6366F1"/>
<path d="M26 175C26 171.686 28.6863 169 32 169H313C316.314 169 319 171.686 319 175V193C319 196.314 316.314 199 313 199H32C28.6863 199 26 196.314 26 193V175Z" fill="#6366F1"/>
<path d="M26 222C26 218.686 28.6863 216 32 216H251C254.314 216 257 218.686 257 222V240C257 243.314 254.314 246 251 246H32C28.6863 246 26 243.314 26 240V222Z" fill="#6366F1"/>
<circle cx="447.5" cy="224.5" r="40.5" fill="#4F46E5"/>
<path d="M439.982 242.553L423.732 226.303C422.756 225.327 422.756 223.744 423.732 222.768L427.268 219.232C428.244 218.256 429.827 218.256 430.803 219.232L441.75 230.179L465.197 206.732C466.173 205.756 467.756 205.756 468.732 206.732L472.268 210.268C473.244 211.244 473.244 212.827 472.268 213.803L443.518 242.553C442.541 243.53 440.958 243.53 439.982 242.553Z" fill="white"/>
</svg>
